# xmcd
#
# Track frame offsets:
#	150
#	17385
#	35060
#	47123
#	61703
#	78310
#	92413
#	108473
#	125268
#	141760
#	154783
#	169253
#
# Disc length: 2419 seconds
#
# Revision: 0
# Processed by: cddbd v1.5.2PL0 Copyright (c) Steve Scherf et al.
# Submitted via: dBpowerAMP V4.0
#
DISCID=8f09710c
DTITLE=Gian and Giovani - Vol 2
DYEAR=1991
DGENRE=Sertanejo
TTITLE0=Sua Vez
TTITLE1=Nem Dormindo Eu Consigo Te Esquecer
TTITLE2=Estou de Olho em Você
TTITLE3=Nos Braços da Desilusão
TTITLE4=Sonhos de Brinquedo
TTITLE5=Contra-Senso
TTITLE6=O Amor Vai Cuidar de Nós
TTITLE7=Caçador de Corações
TTITLE8=Roupa de Lua de Mel
TTITLE9=Sonho de Nós Dois
TTITLE10=As Mesmas Coisas
TTITLE11=Saideira
EXTD=Gian and Giovani - Vol. 2
EXTT0=
EXTT1=
EXTT2=
EXTT3=
EXTT4=
EXTT5=
EXTT6=
EXTT7=
EXTT8=
EXTT9=
EXTT10=
EXTT11=
PLAYORDER=
